<?xml version="1.0" standalone="no"?>
<!DOCTYPE svg PUBLIC "-//W3C//DTD SVG 20010904//EN"
 "http://www.w3.org/TR/2001/REC-SVG-20010904/DTD/svg10.dtd">
<svg version="1.0" xmlns="http://www.w3.org/2000/svg"
 width="200.000000pt" height="326.000000pt" viewBox="0 0 200.000000 326.000000"
 preserveAspectRatio="xMidYMid meet">

<g transform="translate(0.000000,326.000000) scale(0.100000,-0.100000)"
fill="#000000" stroke="none">
<path d="M262 3118 l2 -103 6 90 c3 50 7 86 9 80 1 -5 9 -32 17 -60 l14 -50
-4 46 c-6 55 -22 99 -36 99 -6 0 -9 -38 -8 -102z"/>
<path d="M312 3040 c0 -19 2 -27 5 -17 2 9 2 25 0 35 -3 9 -5 1 -5 -18z"/>
<path d="M271 2953 c-1 -53 28 -350 53 -543 8 -58 14 -91 15 -75 0 17 -6 89
-15 160 -8 72 -24 216 -34 320 -10 105 -18 166 -19 138z"/>
<path d="M320 2994 c-1 -26 155 -1245 158 -1236 4 12 -75 667 -134 1112 -14
109 -23 156 -24 124z"/>
<path d="M1083 2402 c-12 -2 -27 -10 -33 -18 -7 -8 -23 -14 -37 -14 -13 0 -26
-6 -29 -14 -3 -8 -15 -17 -27 -20 -14 -4 -18 -9 -11 -13 15 -11 13 -43 -3 -43
-7 0 -13 -6 -13 -14 0 -8 -7 -16 -15 -20 -19 -7 -19 4 1 32 8 12 11 22 5 22
-17 0 -58 -85 -65 -136 -15 -102 -14 -118 10 -165 23 -46 23 -47 4 -61 -17
-12 -18 -16 -5 -43 l14 -30 -6 33 c-3 18 -1 32 4 32 6 0 13 -19 17 -41 4 -23
9 -40 11 -37 3 2 6 57 7 121 3 89 0 117 -9 117 -20 0 -15 28 7 50 25 25 25 30
1 30 -27 0 -36 19 -18 37 11 12 19 13 36 4 30 -17 27 -33 -5 -21 -51 20 -38 9
26 -22 86 -41 115 -40 280 2 26 7 40 6 57 -5 37 -25 98 -162 62 -139 -8 4 -9
-1 -4 -17 25 -77 36 -212 15 -179 -11 17 -10 22 -15 -133 -5 -145 -17 -177
-111 -313 -46 -65 -107 -157 -136 -204 l-52 -84 -14 34 c-9 22 -18 96 -23 195
-4 88 -11 175 -15 193 -9 44 5 41 55 -13 36 -38 48 -45 81 -45 54 0 89 15 133
58 34 32 67 80 67 96 0 3 -18 -14 -40 -37 -32 -34 -40 -38 -40 -22 0 19 0 19
-15 -1 -22 -32 -68 -47 -119 -40 -61 9 -122 76 -154 170 -14 38 -28 63 -34 60
-15 -9 -28 16 -28 56 0 19 -4 41 -9 48 -10 17 -2 -87 9 -108 4 -8 5 -53 1
-100 l-6 -85 -88 -1 c-52 0 -92 -5 -99 -12 -7 -7 -36 -12 -65 -12 -57 0 -133
-25 -133 -44 0 -6 23 -191 50 -411 32 -248 56 -402 63 -407 9 -5 9 -10 -1 -20
-6 -6 -13 -23 -13 -37 -1 -21 -2 -22 -6 -6 -7 26 -21 35 -56 35 -25 0 -27 -3
-22 -27 5 -25 4 -24 -10 6 -19 41 -19 41 1 41 8 0 13 4 10 8 -2 4 -23 176 -45
382 -23 206 -42 381 -44 388 -1 7 -40 -23 -85 -66 -77 -73 -83 -82 -72 -102
10 -19 8 -26 -22 -57 -18 -19 -75 -71 -125 -115 l-93 -80 0 -82 0 -83 67 -12
c73 -13 132 -39 115 -50 -7 -4 -8 -12 -2 -21 20 -31 9 -31 -19 -1 -34 37 -69
51 -122 51 l-39 0 0 -45 c0 -44 0 -44 30 -39 17 4 30 4 30 1 0 -4 -14 -13 -30
-22 -17 -9 -30 -22 -30 -31 0 -11 6 -10 30 8 21 15 33 19 41 11 7 -7 -1 -16
-28 -30 l-38 -20 -3 -302 -2 -302 87 3 88 3 -1 50 c0 28 -7 77 -14 110 -22 95
-17 160 18 237 23 50 40 73 69 91 46 29 93 41 113 27 12 -8 10 -10 -10 -10
-58 0 -103 -64 -143 -200 -32 -107 -41 -160 -28 -160 5 0 12 -8 15 -17 3 -10
3 2 0 27 -6 43 -5 44 11 25 16 -19 16 -19 10 -1 -3 11 0 23 7 28 19 12 28 10
28 -7 0 -18 26 -20 33 -2 7 18 97 10 97 -9 0 -8 -15 -45 -34 -82 -59 -118 -61
-112 38 -112 53 0 86 4 86 10 0 6 10 14 22 19 21 8 21 8 -5 15 -30 7 -38 42
-12 52 22 9 18 24 -5 24 -11 0 -23 7 -27 15 -8 23 26 55 59 55 15 0 37 9 48
20 24 24 60 29 40 5 -10 -12 -9 -15 6 -15 22 0 57 20 37 20 -7 0 -13 5 -13 10
0 16 19 12 51 -11 23 -16 35 -40 60 -120 l31 -99 574 0 574 0 0 583 c0 641 0
642 -61 739 -29 44 -33 47 -112 67 -45 12 -95 26 -112 32 -16 6 -48 17 -70 23
-22 7 -53 18 -68 24 -16 7 -40 12 -54 12 -15 0 -41 14 -64 35 -22 19 -44 35
-50 35 -7 0 -9 17 -4 53 10 87 16 107 30 107 8 0 17 4 20 10 3 6 -1 7 -9 4
-25 -9 -18 72 10 126 18 33 21 46 11 52 -8 5 -6 8 7 8 15 0 16 3 7 14 -8 10
-9 16 -1 21 5 3 10 14 10 24 0 22 -30 24 -31 2 0 -11 -4 -9 -11 6 -6 12 -8 29
-4 38 5 13 10 14 27 4 20 -10 21 -9 16 17 -4 16 -12 57 -18 91 -13 64 -29 87
-129 174 -43 38 -55 42 -113 41 -15 0 -25 3 -22 8 5 8 -27 9 -72 2z m30 -22
c3 -11 1 -18 -4 -14 -5 3 -9 12 -9 20 0 20 7 17 13 -6z m45 -9 c3 -8 -1 -12
-9 -9 -7 2 -15 10 -17 17 -3 8 1 12 9 9 7 -2 15 -10 17 -17z m-94 -17 c5 -12
2 -15 -10 -10 -12 5 -14 1 -9 -15 5 -14 3 -19 -4 -15 -6 4 -20 2 -32 -4 -15
-9 -24 -9 -32 -1 -14 14 16 48 47 54 11 2 24 5 27 6 4 0 10 -6 13 -15z m207
-15 c13 -26 5 -24 -26 5 -24 22 -24 24 -5 19 11 -3 25 -14 31 -24z m-251 -49
c0 -5 -2 -10 -4 -10 -3 0 -8 5 -11 10 -3 6 -1 10 4 10 6 0 11 -4 11 -10z m330
0 c13 -8 13 -10 -2 -10 -9 0 -20 5 -23 10 -8 13 5 13 25 0z m36 -44 c17 -17
18 -26 3 -26 -15 0 -39 26 -32 34 9 9 13 8 29 -8z m-236 -50 c0 -8 -7 -16 -15
-20 -12 -4 -13 -2 -2 14 14 24 17 25 17 6z m254 -2 c9 -23 7 -34 -5 -34 -5 0
-7 5 -4 10 3 6 -3 10 -14 10 -21 0 -27 11 -14 23 11 12 31 7 37 -9z m-16 -49
c1 -1 -6 -5 -17 -8 -12 -3 -27 3 -37 14 -17 19 -16 19 17 8 19 -7 35 -13 37
-14z m18 -25 c21 0 17 -17 -5 -23 -19 -5 -41 9 -41 26 0 5 7 6 16 3 9 -3 22
-6 30 -6z m-432 -538 c-6 -8 -20 -22 -32 -30 -22 -14 -22 -14 -22 61 0 111 8
121 38 47 18 -44 22 -67 16 -78z m453 -54 c29 -29 53 -60 53 -68 0 -9 -11 -50
-25 -91 -35 -102 -72 -252 -79 -324 -4 -34 -1 -126 5 -205 15 -171 13 -257 -5
-285 -25 -38 -109 -115 -126 -115 -9 0 -43 -23 -75 -50 -49 -42 -65 -49 -87
-45 -17 4 -84 -9 -180 -35 -128 -35 -158 -40 -181 -31 -19 7 -27 17 -25 29 3
15 16 17 95 17 50 0 95 3 99 7 4 5 -26 8 -67 9 -97 1 -122 9 -129 39 -5 23 -7
23 -16 7 -6 -10 -23 -22 -40 -27 -25 -8 -23 -9 14 -4 34 5 42 3 42 -10 0 -22
-54 -53 -104 -62 -23 -3 -49 -10 -58 -15 -51 -27 -103 38 -114 143 -5 55 -3
71 16 109 25 50 48 79 63 79 6 0 0 -12 -14 -27 -24 -26 -24 -26 -1 -11 17 11
40 14 85 11 97 -6 107 -10 107 -38 0 -24 -3 -25 -67 -26 -78 -1 -74 -6 12 -17
53 -6 60 -10 63 -30 3 -17 -2 -25 -19 -29 -22 -6 -22 -7 -3 -13 28 -10 47 38
31 80 -9 23 -9 35 0 49 10 15 8 26 -8 57 -12 24 -19 31 -19 19 0 -10 7 -27 17
-37 22 -24 15 -28 -24 -12 -18 8 -33 21 -33 30 0 26 20 55 33 48 9 -5 8 -3 0
7 -9 8 -13 46 -13 111 0 144 58 549 80 556 6 2 7 20 4 42 -4 22 -4 49 -1 62 7
27 101 88 135 88 l22 0 0 -247 c0 -242 -6 -307 -38 -423 -8 -31 -16 -107 -17
-175 -2 -82 -1 -104 4 -70 7 44 8 37 10 -50 2 -55 4 -95 6 -90 4 9 37 284 38
313 1 20 15 13 21 -10 2 -13 2 6 -1 42 -8 88 -7 673 2 699 3 12 11 21 17 21 6
0 19 7 28 15 16 14 18 8 29 -85 6 -55 11 -139 11 -185 0 -77 19 -166 39 -188
4 -4 44 47 90 113 75 110 108 150 81 100 -18 -34 -3 -22 19 16 12 19 18 40 15
46 -4 7 -2 8 4 4 11 -7 17 7 12 29 -1 6 2 7 6 3 4 -4 14 -2 22 5 13 10 15 9 8
-8 -5 -14 4 -9 29 16 20 19 42 53 50 75 13 36 14 37 15 11 0 -16 -5 -38 -11
-50 -10 -21 -10 -21 5 -3 18 23 21 68 6 97 -13 24 -30 25 -30 2 0 -10 -9 -33
-21 -52 -14 -23 -17 -36 -10 -41 8 -4 5 -13 -9 -25 -12 -11 -20 -13 -20 -6 0
7 -5 9 -12 5 -6 -4 3 14 21 40 18 25 35 62 38 81 3 19 11 35 16 35 6 0 35 -23
64 -52z m263 -120 c11 -7 5 -8 -19 -4 -18 3 -48 6 -65 6 -24 0 -28 3 -16 10
16 11 76 4 100 -12z m52 -279 c69 -13 154 -47 170 -66 11 -14 10 -15 -8 -9
-19 6 -23 0 -40 -56 -15 -50 -19 -58 -22 -36 -2 15 2 44 7 65 13 45 -3 63 -54
63 -41 0 -60 -22 -95 -112 -20 -49 -29 -65 -30 -47 0 35 18 87 46 129 26 38
20 54 -18 45 -18 -5 -36 -29 -74 -100 -27 -51 -50 -92 -51 -91 -1 1 9 32 23
70 30 83 15 83 -42 -1 -50 -73 -84 -158 -93 -233 -8 -73 -3 -132 11 -124 7 4
8 2 4 -4 -4 -7 -15 -16 -24 -21 -17 -9 -18 -2 -14 87 5 120 33 237 78 323 41
78 66 104 114 117 47 14 51 14 112 1z m-187 -268 c-4 -9 -18 -58 -33 -108 -14
-51 -28 -91 -30 -89 -3 4 24 163 34 197 2 9 11 16 20 16 9 0 13 -6 9 -16z
m245 1 c0 -5 -15 -19 -32 -32 l-33 -23 29 31 c31 34 36 37 36 24z m-1437 -219
c5 -8 4 -13 -2 -13 -5 0 -13 5 -17 11 -3 6 -20 20 -38 31 l-31 20 33 -4 32 -5
2 66 1 66 6 -80 c3 -44 10 -86 14 -92z m1262 71 c-34 -29 -91 -69 -75 -51 12
13 105 86 110 86 3 0 -13 -16 -35 -35z m-1195 -169 c0 -3 -7 -17 -16 -31 -24
-35 -23 -154 0 -189 21 -32 15 -42 -16 -29 -13 5 -48 7 -78 3 -53 -6 -86 4
-74 22 3 5 9 7 13 5 4 -3 7 10 7 27 0 18 4 45 8 61 6 24 9 27 18 15 8 -11 9
-10 4 5 -7 21 25 79 57 101 20 14 77 21 77 10z m760 -189 c0 -2 -8 -10 -17
-17 -16 -13 -17 -12 -4 4 13 16 21 21 21 13z m57 -38 c-3 -8 -6 -5 -6 6 -1 11
2 17 5 13 3 -3 4 -12 1 -19z m10 -95 c-2 -16 -4 -3 -4 27 0 30 2 43 4 28 2
-16 2 -40 0 -55z m239 -43 c15 0 16 -2 5 -9 -17 -11 -59 8 -82 35 -11 15 -7
14 22 -4 20 -12 45 -22 55 -22z"/>
<path d="M872 1474 c-1 -17 -4 -47 -7 -65 l-5 -34 11 34 c5 18 8 47 6 65 l-4
31 -1 -31z"/>
<path d="M1427 1456 c-10 -14 -13 -26 -8 -26 13 0 33 28 29 41 -2 6 -12 0 -21
-15z"/>
<path d="M952 1430 c0 -19 2 -27 5 -17 2 9 2 25 0 35 -3 9 -5 1 -5 -18z"/>
<path d="M1395 1368 l-40 -43 43 40 c39 36 47 45 39 45 -2 0 -21 -19 -42 -42z"/>
<path d="M852 1350 c0 -14 2 -19 5 -12 2 6 2 18 0 25 -3 6 -5 1 -5 -13z"/>
<path d="M944 1285 c0 -49 1 -71 3 -48 2 23 2 64 0 90 -2 26 -3 8 -3 -42z"/>
<path d="M844 1160 c0 -52 1 -74 3 -47 2 26 2 68 0 95 -2 26 -3 4 -3 -48z"/>
<path d="M1225 1224 c-9 -15 -12 -23 -6 -20 11 7 35 46 28 46 -3 0 -12 -12
-22 -26z"/>
<path d="M1130 1174 c-12 -19 -20 -37 -18 -39 2 -3 15 13 27 35 28 50 21 53
-9 4z"/>
<path d="M953 1145 c0 -22 2 -30 4 -17 2 12 2 30 0 40 -3 9 -5 -1 -4 -23z"/>
<path d="M1144 1103 c-11 -16 -24 -35 -29 -43 -7 -12 -6 -13 6 -3 14 11 53 73
46 73 -2 0 -12 -12 -23 -27z"/>
<path d="M1085 1089 c-4 -6 -5 -12 -2 -15 2 -3 7 2 10 11 7 17 1 20 -8 4z"/>
<path d="M962 1050 c0 -14 2 -19 5 -12 2 6 2 18 0 25 -3 6 -5 1 -5 -13z"/>
<path d="M972 1000 c0 -14 2 -19 5 -12 2 6 2 18 0 25 -3 6 -5 1 -5 -13z"/>
<path d="M1073 998 c-15 -20 -25 -38 -20 -38 3 0 12 11 21 25 17 26 16 35 -1
13z"/>
<path d="M1166 932 c-22 -37 -85 -130 -141 -207 -101 -139 -149 -209 -128
-190 6 6 61 80 123 165 102 141 118 157 95 95 -5 -11 -5 -17 -2 -14 8 7 98
211 95 215 -2 1 -21 -28 -42 -64z"/>
<path d="M982 945 c0 -16 2 -22 5 -12 2 9 2 23 0 30 -3 6 -5 -1 -5 -18z"/>
<path d="M1017 919 c-28 -33 -32 -39 -19 -39 4 0 17 16 30 35 27 43 25 44 -11
4z"/>
<path d="M801 843 c-17 -21 -31 -44 -31 -53 1 -8 8 -1 17 15 8 17 25 40 36 53
11 12 18 22 14 22 -3 0 -19 -17 -36 -37z"/>
<path d="M1096 755 c-9 -26 -7 -32 5 -12 6 10 9 21 6 23 -2 3 -7 -2 -11 -11z"/>
<path d="M1066 685 c-9 -26 -7 -32 5 -12 6 10 9 21 6 23 -2 3 -7 -2 -11 -11z"/>
<path d="M1046 635 c-9 -26 -7 -32 5 -12 6 10 9 21 6 23 -2 3 -7 -2 -11 -11z"/>
<path d="M986 485 c-9 -26 -7 -32 5 -12 6 10 9 21 6 23 -2 3 -7 -2 -11 -11z"/>
<path d="M450 443 c0 -4 5 -15 10 -23 8 -13 10 -13 10 2 0 9 -4 20 -10 23 -5
3 -10 3 -10 -2z"/>
<path d="M500 430 c-13 -8 -13 -10 2 -10 9 0 20 5 23 10 8 13 -5 13 -25 0z"/>
<path d="M603 413 c9 -2 23 -2 30 0 6 3 -1 5 -18 5 -16 0 -22 -2 -12 -5z"/>
<path d="M353 435 c0 -22 2 -30 4 -17 2 12 2 30 0 40 -3 9 -5 -1 -4 -23z"/>
<path d="M291 374 c0 -11 3 -14 6 -6 3 7 2 16 -1 19 -3 4 -6 -2 -5 -13z"/>
<path d="M360 382 c0 -15 30 -76 35 -70 2 2 0 19 -5 38 -4 19 -8 31 -9 25 -1
-5 -6 -3 -11 5 -7 11 -10 11 -10 2z"/>
<path d="M340 336 c0 -2 8 -10 18 -17 15 -13 16 -12 3 4 -13 16 -21 21 -21 13z"/>
<path d="M343 2260 c0 -25 2 -35 4 -22 2 12 2 32 0 45 -2 12 -4 2 -4 -23z"/>
<path d="M353 2170 c0 -25 2 -35 4 -22 2 12 2 32 0 45 -2 12 -4 2 -4 -23z"/>
<path d="M916 2134 c-26 -26 -18 -39 9 -14 14 13 25 25 25 27 0 9 -20 1 -34
-13z"/>
<path d="M362 2080 c0 -19 2 -27 5 -17 2 9 2 25 0 35 -3 9 -5 1 -5 -18z"/>
<path d="M373 1985 c0 -22 2 -30 4 -17 2 12 2 30 0 40 -3 9 -5 -1 -4 -23z"/>
<path d="M1220 1958 c-14 -6 -36 -14 -49 -19 -34 -14 -11 -36 36 -34 21 0 46
-3 57 -8 13 -6 21 -5 27 4 10 16 -7 29 -39 29 -13 0 -20 4 -17 10 8 13 51 13
76 0 15 -8 19 -7 19 3 0 26 -64 34 -110 15z"/>
<path d="M937 1953 c-14 -13 -6 -24 12 -18 24 7 73 -4 65 -16 -3 -5 -22 -9
-42 -9 -35 0 -36 -1 -18 -17 14 -13 20 -15 23 -5 3 6 10 9 16 5 16 -10 67 -11
67 -1 0 4 7 5 15 2 29 -12 15 14 -23 40 -36 25 -99 35 -115 19z"/>
<path d="M1431 1891 c-7 -34 -17 -61 -21 -61 -5 0 -6 -10 -3 -21 5 -16 8 -18
13 -8 12 22 33 125 29 138 -3 7 -11 -15 -18 -48z"/>
<path d="M383 1890 c0 -25 2 -35 4 -22 2 12 2 32 0 45 -2 12 -4 2 -4 -23z"/>
<path d="M393 1805 c0 -22 2 -30 4 -17 2 12 2 30 0 40 -3 9 -5 -1 -4 -23z"/>
<path d="M1151 1759 c-18 -6 -32 -12 -30 -13 8 -7 69 7 69 15 0 5 -1 9 -2 8
-2 0 -18 -5 -37 -10z"/>
<path d="M1069 1749 c-10 -6 -7 -9 14 -9 29 0 35 5 14 13 -8 3 -20 1 -28 -4z"/>
<path d="M402 1710 c0 -19 2 -27 5 -17 2 9 2 25 0 35 -3 9 -5 1 -5 -18z"/>
<path d="M483 1705 c0 -22 2 -30 4 -17 2 12 2 30 0 40 -3 9 -5 -1 -4 -23z"/>
<path d="M1120 1710 c0 -5 5 -10 11 -10 5 0 7 5 4 10 -3 6 -8 10 -11 10 -2 0
-4 -4 -4 -10z"/>
<path d="M1070 1669 c-15 -4 8 -7 60 -8 56 0 80 3 70 9 -16 10 -93 10 -130 -1z"/>
<path d="M493 1625 c0 -22 2 -30 4 -17 2 12 2 30 0 40 -3 9 -5 -1 -4 -23z"/>
<path d="M412 1625 c0 -16 2 -22 5 -12 2 9 2 23 0 30 -3 6 -5 -1 -5 -18z"/>
<path d="M1093 1626 c-10 -11 -7 -15 12 -20 30 -8 52 1 52 19 0 19 -48 19 -64
1z"/>
<path d="M503 1545 c0 -22 2 -30 4 -17 2 12 2 30 0 40 -3 9 -5 -1 -4 -23z"/>
<path d="M421 1534 c0 -11 3 -14 6 -6 3 7 2 16 -1 19 -3 4 -6 -2 -5 -13z"/>
<path d="M1102 1370 c6 -20 37 -25 52 -9 8 9 7 10 -8 5 -10 -3 -25 -1 -34 6
-13 11 -14 10 -10 -2z"/>
<path d="M579 718 c-3 -21 -2 -38 2 -38 13 0 16 14 9 45 l-6 30 -5 -37z"/>
<path d="M552 720 c0 -14 2 -19 5 -12 2 6 2 18 0 25 -3 6 -5 1 -5 -13z"/>
<path d="M535 680 c3 -5 8 -10 11 -10 2 0 4 5 4 10 0 6 -5 10 -11 10 -5 0 -7
-4 -4 -10z"/>
<path d="M558 653 c12 -2 30 -2 40 0 9 3 -1 5 -23 4 -22 0 -30 -2 -17 -4z"/>
</g>
</svg>
