<?xml version="1.0" standalone="no"?>
<!DOCTYPE svg PUBLIC "-//W3C//DTD SVG 20010904//EN"
 "http://www.w3.org/TR/2001/REC-SVG-20010904/DTD/svg10.dtd">
<svg version="1.0" xmlns="http://www.w3.org/2000/svg"
 width="403.000000pt" height="584.000000pt" viewBox="0 0 403.000000 584.000000"
 preserveAspectRatio="xMidYMid meet">
<metadata>
Created by potrace 1.16, written by Peter Selinger 2001-2019
</metadata>
<g transform="translate(0.000000,584.000000) scale(0.100000,-0.100000)"
fill="#000000" stroke="none">
<path d="M470 4715 l0 -246 78 3 77 3 5 113 5 113 50 -80 c28 -45 52 -81 55
-81 3 0 28 37 55 82 l50 82 3 -112 3 -112 32 -1 c61 -3 118 -1 122 3 3 2 5
110 6 239 l1 234 -85 3 -85 3 -47 -81 c-26 -44 -50 -80 -53 -80 -4 0 -29 36
-55 80 l-49 80 -84 0 -84 0 0 -245z"/>
<path d="M1234 4923 c-8 -21 -38 -92 -66 -158 -47 -113 -102 -245 -115 -272
-4 -10 16 -13 82 -13 l87 0 11 30 11 30 87 0 87 0 7 -30 7 -30 89 0 c88 0 88
0 80 23 -5 12 -40 96 -78 187 -39 91 -79 188 -90 215 l-19 50 -82 3 -81 3 -17
-38z"/>
<path d="M1500 4953 c0 -2 41 -73 90 -158 l90 -154 0 -81 0 -80 75 0 75 0 0
83 0 83 76 125 c42 68 85 139 96 157 l20 32 -94 -1 -93 0 -39 -80 -39 -80 -45
81 -44 81 -84 -3 c-46 -1 -84 -4 -84 -5z"/>
<path d="M2194 4946 c-3 -7 -4 -38 -2 -67 l3 -54 68 -3 67 -3 0 -169 0 -170
80 0 80 0 1 88 c1 48 1 124 0 170 l-3 82 71 0 c79 0 79 1 73 93 l-4 47 -214 0
c-172 0 -216 -3 -220 -14z"/>
<path d="M2680 4943 c0 -10 -3 -118 -7 -240 l-6 -223 82 0 81 0 0 85 0 85 75
0 75 0 0 -85 0 -85 40 -1 c22 -1 55 -2 73 -3 47 -3 52 1 51 37 -1 17 -2 125
-2 240 l-2 207 -80 0 -80 0 0 -84 0 -84 -71 -4 c-39 -2 -73 -1 -75 1 -2 2 -4
42 -4 88 l0 83 -75 0 c-65 0 -75 -2 -75 -17z"/>
<path d="M3187 4953 c-4 -3 -7 -111 -7 -239 0 -184 3 -233 13 -237 8 -3 102
-6 210 -6 l197 -2 0 71 0 70 -125 0 -125 0 0 25 0 25 115 0 115 0 0 60 0 60
-120 0 c-116 0 -120 1 -117 21 3 20 10 21 128 22 l124 2 3 68 3 67 -204 0
c-112 0 -207 -3 -210 -7z"/>
<path d="M497 4422 l-27 -3 2 -442 3 -442 1563 -2 1562 -3 -2 445 -3 446
-1535 2 c-844 1 -1547 1 -1563 -1z m2871 -111 l122 -1 0 -335 0 -335 -1452 2
-1453 3 -1 332 0 333 175 2 c173 3 2368 2 2609 -1z"/>
<path d="M1369 4256 c-150 -40 -239 -161 -226 -306 14 -158 147 -266 317 -258
170 8 284 121 285 283 0 132 -77 236 -206 276 -69 22 -105 23 -170 5z m130
-171 c31 -16 61 -69 61 -109 0 -44 -27 -94 -59 -110 -84 -44 -171 14 -171 114
0 90 90 146 169 105z"/>
<path d="M2599 4260 c-87 -15 -172 -77 -215 -160 -27 -51 -27 -200 1 -255 48
-98 130 -148 253 -153 77 -4 88 -2 147 27 43 21 74 45 94 73 17 23 30 43 28
44 -1 1 -35 21 -76 44 l-73 42 -27 -30 c-58 -62 -135 -49 -174 31 -60 121 77
234 171 140 l26 -26 52 28 c28 15 61 35 73 44 l21 16 -24 34 c-33 45 -81 76
-146 95 -58 17 -62 17 -131 6z"/>
<path d="M653 4253 c-10 -4 -13 -69 -13 -279 l0 -274 95 0 95 0 0 90 0 90 130
0 130 0 0 75 0 75 -130 0 -130 0 0 29 c0 27 2 29 58 34 31 3 94 5 140 3 l82
-2 0 80 0 81 -223 1 c-122 1 -228 0 -234 -3z"/>
<path d="M2988 4252 l-28 -3 0 -275 0 -274 240 0 240 0 0 75 0 75 -150 0 -150
0 0 30 0 29 138 3 137 3 -1 65 -1 65 -114 2 c-63 1 -124 2 -136 3 -18 0 -23 6
-23 25 l0 24 148 3 147 3 0 75 0 75 -210 0 c-115 0 -222 -1 -237 -3z"/>
<path d="M1800 3975 l0 -275 90 0 90 0 0 80 c0 76 1 80 23 80 16 0 35 -20 75
-80 l52 -80 105 0 106 0 -61 88 c-33 48 -60 92 -60 98 0 5 14 18 31 28 91 54
88 231 -5 294 -53 36 -91 42 -273 42 l-173 0 0 -275z m318 109 c12 -8 22 -26
22 -39 0 -36 -36 -55 -102 -55 l-58 0 0 55 0 55 58 0 c36 0 66 -6 80 -16z"/>
<path d="M480 3468 c0 -7 -2 -80 -5 -163 -3 -82 -3 -189 1 -237 l7 -88 156 0
c179 0 222 9 268 55 28 28 33 40 33 82 0 55 -17 86 -62 109 l-30 16 30 18 c71
44 64 154 -13 194 -35 18 -61 21 -212 24 -139 3 -173 1 -173 -10z"/>
<path d="M980 3230 l0 -250 211 3 211 2 2 65 1 65 -132 3 -133 3 0 24 0 25
123 0 122 0 -3 60 -4 60 -119 0 -119 0 0 25 0 25 130 0 130 0 0 70 0 70 -210
0 -210 0 0 -250z"/>
<path d="M1602 3468 c7 -17 111 -335 138 -420 l22 -68 72 0 73 0 38 113 c21
61 41 116 45 120 7 8 18 -21 70 -178 l17 -50 74 -3 74 -3 78 243 c43 134 78
247 77 251 0 4 -37 7 -82 5 l-83 -3 -31 -108 c-17 -59 -34 -110 -36 -113 -3
-2 -23 46 -44 108 l-40 113 -69 3 -70 3 -40 -118 -39 -117 -13 32 c-7 18 -24
70 -37 115 l-24 82 -87 3 c-68 2 -86 0 -83 -10z"/>
<path d="M2420 3478 c-1 -2 -1 -113 -1 -248 l-1 -245 81 -3 81 -3 0 251 0 250
-80 0 c-44 0 -80 -1 -80 -2z"/>
<path d="M2620 3410 l0 -69 73 -3 72 -3 2 -160 c1 -88 2 -168 2 -177 1 -16 12
-18 81 -18 l80 0 2 178 3 177 73 3 72 3 0 69 0 70 -230 0 -230 0 0 -70z"/>
<path d="M3117 3473 c-4 -3 -7 -116 -7 -250 l0 -243 85 0 85 0 0 90 0 90 75 0
75 0 0 -90 0 -90 85 0 85 0 0 250 0 250 -85 0 -85 0 0 -85 c0 -61 -4 -85 -12
-86 -16 -1 -84 -1 -115 0 -22 1 -23 5 -23 86 l0 85 -78 0 c-43 0 -82 -3 -85
-7z"/>
<path d="M1895 2930 c-16 -5 -50 -14 -75 -20 -100 -25 -233 -130 -292 -231
-64 -110 -87 -281 -52 -400 40 -137 144 -262 268 -323 93 -46 150 -58 271 -58
118 1 199 23 290 77 78 47 97 66 156 149 82 116 113 260 85 394 -41 197 -194
355 -392 406 -65 17 -208 20 -259 6z m168 -295 c41 -7 100 -53 123 -96 83
-161 -14 -350 -178 -348 -82 1 -106 3 -102 11 3 4 -15 25 -39 47 -50 47 -67
91 -67 177 0 74 25 130 76 172 36 30 102 53 134 47 8 -2 32 -6 53 -10z"/>
<path d="M511 2863 c18 -32 58 -101 89 -153 96 -161 195 -332 228 -391 l32
-56 0 -178 0 -177 160 4 c87 2 162 6 165 9 3 4 6 82 6 175 1 131 5 176 17 199
8 17 93 162 188 322 96 161 174 295 174 298 0 3 -84 4 -186 3 l-186 -3 -81
-157 c-45 -87 -84 -158 -87 -158 -3 0 -42 71 -87 158 l-81 157 -192 3 -192 2
33 -57z"/>
<path d="M2610 2608 c0 -344 8 -409 57 -500 32 -58 117 -138 178 -167 146 -69
405 -62 556 14 52 27 128 106 154 162 44 92 48 126 52 471 l5 332 -176 0 -176
0 0 -305 c0 -335 -3 -354 -57 -393 -45 -32 -138 -34 -180 -4 -60 43 -63 59
-66 394 l-2 303 -173 3 -172 2 0 -312z"/>
</g>
</svg>
