<?xml version="1.0" standalone="no"?>
<!DOCTYPE svg PUBLIC "-//W3C//DTD SVG 20010904//EN"
 "http://www.w3.org/TR/2001/REC-SVG-20010904/DTD/svg10.dtd">
<svg version="1.0" xmlns="http://www.w3.org/2000/svg"
 width="564.000000pt" height="906.000000pt" viewBox="0 0 564.000000 906.000000"
 preserveAspectRatio="xMidYMid meet">

<g transform="translate(0.000000,906.000000) scale(0.100000,-0.100000)"
fill="#000000" stroke="none">
<path d="M2693 8983 c25 -314 32 -296 -98 -277 l-90 13 88 -3 c48 -2 89 0 92
4 7 12 -6 286 -15 300 -9 14 -100 -5 -154 -32 -65 -33 -141 -112 -171 -179
-14 -33 -33 -99 -40 -147 -24 -161 -48 -237 -149 -477 -91 -216 -120 -313
-113 -381 7 -72 30 -109 105 -169 59 -46 61 -50 45 -66 -19 -17 -100 -40 -223
-63 -138 -26 -220 -73 -357 -207 l-88 -86 -125 -43 c-241 -82 -394 -177 -445
-279 -9 -18 -19 -65 -21 -105 -8 -150 -11 -296 -5 -296 3 1 22 21 41 46 68 89
178 182 383 324 12 8 57 41 101 73 43 32 81 55 84 52 9 -9 -64 -79 -144 -136
-118 -84 -200 -154 -322 -276 -67 -68 -121 -113 -132 -113 -25 0 -25 -20 0
-69 21 -41 73 -91 95 -91 24 0 208 31 253 42 24 6 68 26 99 44 30 19 58 34 60
34 6 0 -2 -91 -17 -190 -7 -41 -13 -85 -15 -97 -17 -121 -37 -219 -79 -383
-28 -110 -98 -398 -111 -460 -2 -8 -16 -69 -30 -135 -25 -112 -40 -177 -51
-233 -3 -13 -16 -74 -29 -135 -13 -62 -35 -168 -49 -238 -26 -130 -29 -148
-41 -214 -8 -43 -60 -241 -132 -500 -24 -88 -50 -182 -58 -210 -7 -27 -27 -97
-43 -155 -17 -58 -45 -154 -62 -215 -35 -121 -109 -372 -134 -450 -8 -27 -45
-147 -82 -265 -165 -535 -342 -1029 -439 -1227 -41 -84 -75 -157 -75 -163 0
-5 10 -10 23 -10 21 0 72 -13 276 -69 94 -26 210 -27 311 -1 41 10 102 25 135
34 68 17 254 80 302 102 17 7 43 14 57 14 25 0 25 -1 28 -92 l3 -93 36 -17
c51 -24 187 -36 193 -17 10 29 39 378 51 609 3 63 10 176 16 250 6 74 13 275
15 445 10 732 36 1561 49 1574 3 2 7 2 10 -1 11 -10 6 -1740 -4 -1873 -5 -71
-13 -240 -16 -375 -8 -285 -30 -667 -40 -693 -5 -12 -18 -17 -42 -17 -29 0
-33 -3 -24 -14 6 -7 33 -21 59 -31 26 -10 51 -21 55 -25 5 -4 -9 -21 -30 -36
-21 -16 -43 -34 -50 -40 -25 -24 -191 -103 -251 -119 -72 -20 -102 -50 -102
-100 0 -61 11 -92 37 -104 37 -17 145 -26 286 -24 150 2 317 39 443 98 42 19
80 35 84 35 4 0 12 -11 18 -25 11 -24 15 -25 104 -25 89 0 140 8 200 32 23 8
29 19 38 67 7 31 19 80 27 109 8 30 14 86 13 125 -1 40 -3 95 -3 122 l-2 50
68 3 67 3 0 -270 c0 -148 3 -276 6 -285 9 -23 18 -20 71 18 121 85 239 125
394 133 107 5 118 4 136 -14 11 -11 23 -38 26 -60 8 -45 26 -65 80 -88 20 -8
37 -19 37 -23 0 -11 -69 -82 -139 -142 -128 -109 -140 -122 -151 -155 -15 -45
-3 -103 24 -117 31 -17 416 -24 502 -9 92 16 195 72 266 144 33 32 67 57 79
57 31 0 120 45 165 84 27 23 50 56 68 100 26 62 31 66 70 76 145 36 293 105
332 155 17 23 24 45 24 78 0 58 11 70 117 125 141 73 276 115 503 157 178 32
193 37 238 79 52 48 57 67 38 143 -9 34 -16 68 -16 77 0 21 52 46 184 90 125
41 146 56 146 101 0 99 -267 708 -476 1085 -128 232 -375 796 -468 1070 -39
118 -78 252 -90 317 -3 11 -9 38 -15 59 -15 52 -90 391 -106 479 -16 87 -42
232 -55 305 -6 30 -12 66 -15 80 -3 14 -9 50 -15 80 -5 30 -16 92 -25 138 -8
45 -22 119 -30 165 -9 45 -20 107 -25 137 -6 30 -12 66 -15 80 -3 14 -9 50
-15 80 -5 30 -17 96 -25 145 -9 50 -22 128 -30 175 -7 47 -20 123 -29 170 -34
197 -46 304 -51 465 -3 94 -10 197 -15 230 -5 33 -11 110 -15 170 -11 204 -37
382 -73 505 -9 30 -17 60 -18 65 -5 26 -55 147 -83 202 -38 75 -77 121 -150
176 -76 57 -123 81 -208 106 -71 21 -73 22 -83 64 -25 94 -54 155 -126 258
-84 121 -153 262 -170 344 -34 169 -83 288 -139 332 -49 39 -163 84 -220 86
l-50 2 -5 -155 c-4 -134 -6 -147 -12 -91 -5 35 -8 108 -8 162 l0 99 -46 0 -47
0 6 -77z m316 -42 c31 -22 75 -97 62 -105 -17 -11 -42 6 -61 43 -10 21 -26 43
-34 50 -38 31 -9 42 33 12z m-582 -79 l-32 -62 18 -32 19 -33 -44 -40 c-42
-39 -43 -39 -46 -16 -2 14 3 28 12 33 8 4 18 30 22 56 9 61 20 90 51 130 37
49 37 34 0 -36z m646 -137 c34 -22 37 -23 47 -7 9 14 10 12 5 -11 -4 -22 1
-37 20 -62 14 -19 25 -36 25 -39 0 -12 -28 -6 -39 8 -23 27 -100 56 -151 56
-28 0 -76 -9 -108 -20 -72 -26 -163 -36 -188 -22 -15 9 -6 11 45 12 39 0 96
10 148 26 92 28 134 27 197 -6 42 -21 55 -10 32 25 -27 42 -72 58 -140 52 -37
-3 -54 -2 -45 4 30 19 114 10 152 -16z m-643 -62 c-11 -16 -31 -44 -44 -63
-24 -36 -56 -68 -56 -56 0 17 26 55 68 99 52 53 64 60 32 20z m183 -10 c3 -5
-23 -8 -57 -9 -33 0 -72 -6 -84 -13 -13 -7 -26 -10 -29 -8 -3 3 8 12 24 21 29
16 138 22 146 9z m44 -78 c30 -13 43 -13 66 -4 23 10 31 9 44 -4 14 -14 13
-16 -7 -27 -18 -10 -20 -14 -9 -21 12 -8 11 -11 -3 -20 -22 -12 -23 -29 -2
-29 8 0 12 -4 9 -10 -3 -5 -16 -10 -29 -10 -18 0 -25 9 -37 47 -11 39 -22 52
-54 70 -46 26 -32 30 22 8z m-192 -153 c-2 -3 -11 -2 -20 1 -18 8 -20 58 -2
76 10 10 13 4 19 -30 4 -24 6 -45 3 -47z m451 31 c18 -11 17 -12 -9 -12 -38
-1 -67 16 -67 38 0 29 12 32 35 8 12 -12 30 -27 41 -34z m-135 -50 c13 -15 11
-16 -12 -10 -37 9 -63 -15 -92 -89 -14 -34 -41 -90 -61 -124 -38 -65 -40 -90
-8 -90 23 0 42 19 42 42 0 10 5 18 10 18 6 0 10 -12 10 -26 0 -19 5 -25 18
-22 13 2 18 17 23 63 5 52 6 54 9 20 1 -22 2 -45 1 -51 -2 -13 27 -39 35 -31
3 2 8 30 11 61 7 69 23 74 23 7 0 -58 24 -89 39 -50 5 13 7 27 4 32 -2 4 0 7
6 7 6 0 14 -11 17 -26 5 -20 12 -24 33 -22 18 2 27 -2 29 -14 5 -23 -14 -26
-197 -33 -84 -3 -158 -8 -164 -12 -5 -3 -16 2 -23 11 -15 21 -2 65 33 112 22
30 30 54 17 54 -4 0 -26 -16 -50 -35 -23 -19 -46 -35 -51 -35 -20 0 -88 107
-70 111 1 0 36 6 77 14 143 26 173 38 182 73 14 54 80 81 109 45z m-171 -39
c0 -11 -70 -34 -102 -33 -32 1 -31 1 17 19 51 19 85 25 85 14z m415 -4 c-28
-12 -63 -12 -70 0 -4 6 12 10 42 9 36 0 43 -3 28 -9z m68 -50 c10 -9 -25 -94
-42 -104 -6 -4 -45 14 -87 41 -79 50 -88 58 -80 71 6 10 198 3 209 -8z m-123
-166 c0 -6 9 -19 19 -28 25 -22 17 -46 -15 -46 -18 0 -24 5 -24 21 0 12 -25
59 -55 104 -30 46 -55 87 -55 91 0 12 129 -129 130 -142z m-96 -171 c-38 -52
-86 -103 -97 -103 -7 0 26 45 87 117 32 38 39 26 10 -14z m136 -243 c-20 -13
-80 -13 -80 0 0 6 21 10 48 10 34 0 43 -3 32 -10z m-220 -76 c0 -3 -26 -38
-58 -77 -121 -150 -123 -170 -9 -97 34 21 95 53 134 69 72 31 183 64 190 57 5
-4 -141 -66 -155 -66 -24 0 -144 -90 -215 -162 -78 -78 -146 -122 -174 -111
-25 10 -13 31 47 83 33 29 60 55 60 58 0 4 -23 8 -50 9 -44 1 -50 -1 -50 -20
0 -40 -57 -76 -75 -47 -3 6 -25 10 -49 10 -39 0 -44 -3 -59 -36 -18 -36 -37
-38 -37 -3 0 40 -34 16 -54 -39 -22 -62 -38 -69 -24 -10 5 23 6 53 3 65 -8 31
-42 30 -57 -2 -10 -21 -8 -27 7 -39 17 -12 18 -16 4 -51 -18 -48 -33 -46 -40
4 -10 71 -64 106 -87 56 -8 -18 -26 -29 -67 -40 -44 -13 -61 -24 -78 -51 -15
-24 -36 -38 -69 -50 -26 -8 -57 -23 -70 -33 -13 -10 -38 -26 -56 -35 -29 -15
-33 -15 -38 -1 -15 39 -36 -8 -55 -121 -10 -63 -9 -78 10 -148 12 -43 31 -96
42 -118 24 -47 20 -59 -11 -26 -67 72 -88 153 -71 275 22 150 52 266 75 289
12 13 51 28 96 38 193 45 433 146 475 202 25 33 57 46 53 22 -2 -8 15 -15 47
-19 28 -3 70 -17 95 -32 62 -37 81 -35 102 11 23 50 143 180 171 185 35 7 97
8 97 1z m474 -40 c9 -8 16 -18 16 -20 0 -23 -36 -51 -132 -102 -235 -124 -298
-162 -598 -360 -129 -85 -246 -162 -260 -172 -66 -45 -86 -50 -214 -50 -69 0
-127 4 -130 9 -3 5 2 19 12 30 15 19 31 22 122 27 135 7 143 9 182 43 46 40
201 144 343 231 66 40 122 75 125 79 23 28 226 171 242 171 12 0 230 108 243
121 13 13 32 11 49 -7z m-836 -56 c-24 -32 -78 -51 -78 -29 0 8 82 58 99 61 2
0 -8 -15 -21 -32z m872 -99 c-52 -41 -158 -109 -220 -141 -110 -58 -347 -212
-480 -313 -256 -193 -272 -201 -402 -210 -100 -7 -273 11 -247 25 8 4 78 10
156 12 l142 5 103 58 c57 32 148 90 203 129 197 140 330 223 461 288 106 53
227 122 269 154 16 13 32 21 35 18 2 -3 -6 -14 -20 -25z m25 -143 c-31 -41
-70 -67 -200 -136 -227 -120 -409 -245 -516 -353 -80 -80 -179 -132 -273 -142
-87 -10 -436 27 -436 45 0 3 114 4 254 2 l255 -5 63 47 c35 25 97 72 138 105
124 99 273 198 405 271 115 64 263 156 275 170 7 9 43 29 53 30 4 0 -4 -15
-18 -34z m-913 -101 c-54 -31 -125 -80 -176 -122 -32 -27 -48 -33 -85 -33 -73
0 -80 12 -36 54 44 43 94 66 144 66 20 0 63 13 96 30 75 36 119 41 57 5z
m-832 -29 c0 -3 -33 -15 -72 -27 -165 -51 -341 -158 -470 -286 -43 -42 -78
-70 -78 -62 1 20 35 90 58 116 29 33 155 111 240 149 43 19 84 38 92 43 8 4
49 18 90 30 41 13 86 27 100 31 30 10 40 11 40 6z m-56 -94 c-23 -20 -88 -68
-145 -107 -146 -97 -221 -156 -320 -253 -48 -46 -90 -79 -93 -73 -12 20 37
102 104 174 106 113 238 202 410 273 79 33 91 29 44 -14z m1781 28 c-19 -30
-229 -149 -242 -136 -2 2 18 15 45 29 71 37 117 63 159 91 44 28 46 30 38 16z
m-285 -161 c-8 -5 -33 -19 -55 -31 -78 -41 -176 -111 -243 -173 -139 -129
-173 -148 -305 -169 -104 -17 -293 -21 -302 -7 -4 8 33 11 117 11 216 0 300
24 393 109 105 96 217 174 360 253 33 18 59 24 35 7z m-1546 -222 c-320 -336
-366 -379 -380 -364 -12 12 419 437 443 437 3 0 -25 -33 -63 -73z m364 -8 c9
-83 52 -194 99 -257 33 -43 21 -54 -18 -17 -63 61 -137 216 -124 260 3 8 7 22
10 31 7 23 30 12 33 -17z m-297 -126 c-11 -16 -48 -55 -83 -88 -68 -66 -46
-34 41 58 61 63 73 71 42 30z m715 -87 c5 -14 -8 -98 -20 -127 -6 -13 1 -20
29 -29 43 -14 65 -1 65 38 0 19 -3 23 -11 15 -23 -23 -35 -3 -34 55 2 56 3 57
31 57 16 0 32 -4 36 -10 4 -5 8 -53 8 -106 0 -83 -2 -98 -17 -104 -10 -3 -65
-10 -123 -15 -103 -9 -299 -33 -372 -46 -35 -6 -38 -5 -39 17 -3 41 3 164 8
171 2 5 17 1 34 -7 35 -19 42 -65 9 -65 -11 0 -20 -7 -20 -15 0 -36 56 -10 86
41 11 18 13 18 43 -11 l31 -29 16 22 c9 13 26 22 40 22 19 0 28 8 39 33 8 19
21 39 29 47 9 7 16 20 16 30 0 26 9 30 62 30 32 0 50 -5 54 -14z m260 -118
c-26 -89 -46 -131 -46 -95 0 21 38 186 46 199 4 6 10 6 16 0 7 -7 2 -41 -16
-104z m574 45 c0 -38 -119 -253 -139 -253 -9 0 122 268 132 269 4 1 7 -7 7
-16z m-1335 -75 c-13 -91 -8 -221 9 -262 16 -39 16 -39 63 -32 53 7 76 22 68
45 -2 9 0 23 5 31 7 11 10 7 10 -17 0 -32 1 -33 45 -33 49 0 58 10 64 73 1 4
6 7 11 7 6 0 10 -13 10 -30 l0 -30 74 0 c41 0 78 -5 81 -10 9 -15 19 -223 12
-252 -6 -24 -11 -25 -109 -31 -57 -4 -139 -13 -183 -21 -49 -9 -84 -11 -89 -5
-6 5 -12 63 -14 130 -4 114 -6 121 -27 131 -27 12 -49 60 -66 140 -10 49 -9
68 6 130 9 40 19 76 22 81 11 19 14 2 8 -45z m1385 -43 c-23 -42 -44 -74 -46
-72 -5 5 53 136 69 155 7 9 13 10 15 3 2 -6 -15 -45 -38 -86z m-525 56 c6 -11
-25 -81 -37 -81 -10 0 -10 7 3 53 10 36 22 46 34 28z m65 -41 c0 -19 -40 -90
-50 -90 -6 0 -3 17 6 38 9 20 18 43 21 50 6 15 23 16 23 2z m-1015 -100 c2
-36 7 -77 11 -92 4 -22 2 -27 -9 -22 -11 4 -17 -2 -19 -23 -4 -26 -5 -25 -17
16 -12 43 -9 95 11 159 5 18 12 32 14 30 2 -2 6 -33 9 -68z m1116 -102 c38 -6
74 -17 80 -24 12 -14 35 -221 26 -230 -3 -3 -38 -1 -79 5 -40 6 -119 12 -176
15 -103 4 -103 4 -138 -26 l-34 -30 -9 24 c-9 26 -24 154 -24 207 0 26 8 41
29 59 28 24 31 25 142 18 63 -3 145 -11 183 -18z m273 -73 c29 -14 24 -14 -64
-9 -52 4 -97 8 -99 9 -1 2 0 9 4 15 9 15 115 5 159 -15z m-805 -128 c0 -43 -3
-76 -8 -73 -5 3 -9 52 -9 108 0 69 3 93 8 73 4 -16 8 -65 9 -108z m-644 -80
c7 -87 -5 -165 -31 -205 l-15 -23 -24 23 c-16 16 -25 40 -30 78 -5 47 -2 64
19 113 33 72 56 108 66 102 5 -3 11 -42 15 -88z m1722 -109 c-4 -68 -11 -168
-17 -223 -6 -55 -17 -165 -25 -245 -26 -255 -44 -417 -69 -595 -5 -34 -19 -98
-41 -195 -8 -36 -19 -85 -24 -110 -11 -53 -51 -203 -92 -350 -17 -58 -32 -112
-34 -120 -4 -18 -57 -195 -88 -295 -11 -38 -22 -74 -23 -80 -4 -13 -52 -177
-69 -235 -164 -543 -224 -859 -265 -1385 -5 -71 -14 -182 -20 -245 -10 -118
-18 -262 -25 -455 -14 -406 -19 -486 -26 -491 -11 -6 -11 -24 -9 506 1 280 6
497 16 610 8 96 19 229 24 295 11 131 36 333 50 405 5 25 12 65 15 90 34 237
244 969 405 1410 92 253 156 509 205 820 7 41 26 201 31 255 2 28 9 86 15 130
12 100 26 221 34 305 10 104 25 283 25 303 0 9 3 17 6 17 4 0 4 -55 1 -122z
m-368 -16 c5 -18 6 -32 2 -32 -10 0 -31 46 -31 67 0 25 19 3 29 -35z m-946
-56 c-5 -51 -8 -64 -16 -51 -13 24 4 138 18 123 2 -2 1 -34 -2 -72z m570 7 c9
-38 18 -81 22 -98 3 -16 8 -41 10 -55 6 -28 18 -134 40 -340 15 -139 35 -324
55 -490 6 -52 13 -117 15 -145 3 -27 10 -99 15 -160 6 -60 17 -186 25 -280 8
-93 19 -215 25 -270 17 -157 20 -266 9 -320 -15 -75 -40 -146 -48 -140 -5 2
-11 73 -15 157 -3 84 -8 169 -10 188 -2 19 -9 109 -15 200 -6 91 -18 257 -26
370 -8 113 -19 288 -25 390 -5 102 -14 228 -20 280 -5 52 -12 125 -15 162 -3
37 -8 84 -10 105 -3 21 -10 83 -15 138 -6 55 -17 159 -25 230 -16 147 -16 145
-11 145 2 0 10 -30 19 -67z m-613 -9 c0 -41 -4 -63 -10 -59 -11 7 -13 48 -4
94 10 48 14 37 14 -35z m-132 -81 c-9 -78 -16 -164 -17 -242 -1 -30 -3 -52 -6
-50 -2 3 -9 38 -15 78 -10 59 -9 89 5 168 16 99 21 113 34 113 4 0 4 -30 -1
-67z m-186 0 c-21 -40 -52 -143 -66 -218 -65 -342 -77 -431 -96 -700 -5 -77
-14 -176 -19 -220 -13 -105 -25 -248 -23 -258 1 -4 -2 -38 -7 -75 -17 -119
-32 -322 -41 -562 -13 -298 -37 -688 -50 -805 -6 -49 -12 -110 -15 -135 -26
-284 -34 -398 -55 -785 -6 -115 -16 -280 -21 -365 -6 -85 -14 -209 -19 -275
-10 -155 -17 -172 -69 -158 -20 5 -21 10 -16 82 4 42 10 108 15 146 5 39 12
124 15 190 4 66 13 190 20 275 8 85 17 202 20 260 3 58 10 164 16 235 6 72 12
155 14 185 14 198 27 355 40 485 8 83 19 202 25 265 5 63 12 143 15 178 8 92
23 288 40 527 17 237 39 506 55 670 6 61 13 128 15 150 35 360 68 541 143 790
11 37 60 135 68 135 2 0 1 -8 -4 -17z m1092 -85 c8 -36 20 -92 25 -124 6 -33
18 -99 26 -149 18 -98 33 -198 41 -260 2 -22 11 -85 19 -140 7 -55 16 -122 19
-150 3 -27 12 -106 21 -175 8 -69 17 -143 19 -165 3 -22 10 -83 18 -135 16
-116 16 -255 -1 -294 -6 -16 -14 -26 -17 -24 -3 3 -9 46 -15 94 -5 49 -16 150
-25 224 -8 74 -21 205 -29 290 -8 85 -19 200 -25 255 -6 55 -13 118 -15 141
-2 22 -9 81 -15 130 -6 49 -17 143 -25 209 -8 66 -19 147 -25 180 -6 33 -13
80 -16 105 -3 25 -7 54 -10 65 -4 16 -3 17 5 5 5 -9 16 -45 25 -82z m-747 36
c3 -9 -1 -30 -9 -48 -30 -62 -41 -142 -27 -199 13 -57 21 -343 8 -330 -4 4
-21 67 -39 138 -24 100 -33 160 -36 260 -7 166 0 180 89 194 4 0 10 -6 14 -15z
m-271 -19 c-3 -13 -11 -95 -17 -180 -10 -163 2 -724 21 -975 6 -69 13 -156 15
-195 3 -38 10 -117 16 -175 14 -162 43 -546 54 -740 8 -151 -14 -7 -30 191 -8
107 -20 241 -25 299 -5 58 -12 130 -14 160 -3 30 -11 120 -20 200 -8 80 -14
152 -14 160 0 8 -6 132 -12 275 -12 252 -8 885 6 968 3 20 11 37 16 37 6 0 7
-11 4 -25z m363 -170 c11 -136 23 -227 37 -272 3 -13 2 -23 -4 -23 -22 0 -62
237 -62 372 0 126 17 82 29 -77z m852 19 c22 -137 44 -258 65 -363 8 -40 16
-85 18 -100 8 -60 27 -160 42 -221 23 -97 28 -203 13 -258 l-13 -46 -8 29 c-8
29 -13 68 -43 290 -8 61 -21 160 -30 220 -9 61 -23 157 -30 215 -8 58 -19 137
-25 175 -6 39 -13 86 -15 105 -3 19 -7 49 -11 65 -5 22 -3 27 5 19 7 -6 21
-64 32 -130z m-600 -377 c-41 -82 -64 -142 -68 -176 -9 -75 -23 -73 -23 3 0
36 -4 66 -10 66 -5 0 -21 -19 -34 -43 -32 -55 -65 -85 -102 -96 -64 -18 -191
70 -241 166 -12 23 -18 45 -14 48 5 2 30 -7 56 -22 79 -43 192 -44 259 -1 38
24 49 33 110 89 75 68 118 101 123 95 3 -3 -23 -61 -56 -129z m44 -159 c26
-117 153 -464 216 -590 11 -21 15 -38 10 -38 -16 0 -49 53 -134 222 -132 260
-155 330 -134 411 10 37 34 34 42 -5z m1140 -75 c-4 -49 -9 -106 -11 -128 -9
-136 -77 -821 -94 -955 -6 -47 -13 -105 -15 -130 -12 -110 -25 -207 -49 -365
-26 -176 -30 -206 -47 -365 -17 -163 -18 -172 -33 -290 -14 -109 -26 -229 -31
-295 -29 -432 -36 -864 -21 -1405 8 -267 4 -299 -27 -287 -17 6 -21 25 -42
192 -53 424 -55 1006 -5 1420 19 154 52 391 65 465 2 14 9 57 15 95 22 146 39
252 50 315 7 36 13 74 15 85 1 11 8 49 15 85 25 141 37 220 55 365 8 66 19
154 24 195 35 271 40 317 56 450 8 69 21 186 29 260 9 74 22 187 31 250 8 63
15 118 15 123 0 4 3 7 6 7 4 0 3 -39 -1 -87z m-1635 5 c0 -20 -28 -114 -30
-103 -3 18 2 100 6 107 8 13 24 9 24 -4z m72 -111 c-19 -72 -43 -472 -37 -587
3 -58 8 -136 10 -175 5 -91 23 -242 33 -280 5 -18 16 -31 28 -33 18 -3 19 2
11 140 -6 107 -4 646 3 778 3 40 24 151 31 155 4 3 17 -4 30 -14 l23 -19 -13
-153 c-20 -251 -30 -449 -32 -707 l-2 -243 30 -32 c65 -70 253 -371 253 -405
0 -17 -35 31 -68 92 -52 96 -136 206 -217 286 -98 96 -106 109 -109 188 -2 37
-9 101 -15 142 -28 170 -31 202 -37 350 -7 162 6 370 30 496 17 89 23 101 44
81 12 -13 13 -23 4 -60z m395 -79 c15 -35 76 -161 136 -282 59 -120 106 -220
104 -223 -8 -7 -129 190 -171 278 -70 147 -120 289 -102 289 3 0 17 -28 33
-62z m-105 -165 c16 -35 23 -75 26 -148 4 -101 -11 -410 -28 -585 -5 -52 -12
-129 -16 -170 -6 -73 -9 -88 -18 -79 -6 5 6 1029 11 1029 2 0 14 -21 25 -47z
m-203 -1053 c0 -76 7 -137 36 -338 13 -93 14 -117 3 -129 -11 -13 -10 -18 6
-27 27 -16 56 -44 56 -55 0 -6 -14 -23 -31 -39 -35 -32 -34 -66 2 -77 25 -8
24 -37 -1 -60 -26 -23 -25 -31 5 -67 32 -38 32 -50 -6 -92 -22 -25 -29 -41
-24 -56 3 -11 10 -20 15 -20 5 0 21 -11 37 -24 l29 -24 -3 -155 c-1 -85 -8
-193 -15 -239 -9 -55 -12 -153 -10 -293 4 -256 15 -308 68 -313 16 -2 35 -5
43 -8 24 -8 -7 -33 -46 -36 -20 -2 -38 -8 -40 -14 -5 -14 25 -45 62 -66 49
-27 54 -46 23 -72 -33 -26 -35 -41 -8 -56 34 -18 22 -27 -33 -22 -64 5 -87
-13 -69 -53 9 -19 8 -31 -3 -52 -25 -47 -28 -89 -11 -139 19 -55 20 -64 6 -64
-5 0 -10 6 -10 12 0 7 -27 61 -60 120 -33 59 -60 112 -60 117 0 18 26 12 45
-9 21 -23 53 -26 61 -6 7 18 -21 85 -48 113 -28 30 -17 40 58 56 32 7 65 16
72 20 18 12 -2 34 -39 42 -34 8 -50 31 -39 59 4 12 6 62 5 111 -1 50 -5 250
-9 445 -8 419 -10 436 -37 443 -18 5 -19 9 -9 27 7 14 9 38 5 64 -3 22 -7 68
-8 101 -1 33 -9 74 -18 90 -12 23 -15 57 -14 155 2 69 5 141 8 160 3 19 -1 85
-9 145 -8 61 -22 160 -29 220 -8 61 -19 131 -23 157 -5 26 -8 49 -5 51 2 2 19
-3 38 -12 l34 -16 0 -75z m2092 -332 c1 -7 3 -22 4 -33 2 -11 8 -105 14 -210
18 -323 44 -638 65 -795 14 -103 29 -218 41 -325 31 -259 40 -332 50 -400 10
-67 35 -218 40 -245 12 -57 25 -211 25 -293 0 -80 -2 -90 -25 -112 -30 -31
-43 -31 -54 -2 -5 12 -18 173 -30 357 -20 308 -32 454 -61 755 -6 61 -13 137
-15 170 -11 129 -25 316 -35 445 -5 74 -14 194 -20 265 -18 238 -23 435 -11
435 6 0 12 -6 12 -12z m-1756 -225 c-17 -114 -29 -173 -35 -173 -6 0 14 171
24 196 10 27 17 14 11 -23z m11 -418 c32 -123 40 -281 17 -371 -8 -32 -21 -90
-28 -129 -17 -83 -41 -175 -49 -183 -11 -11 -5 34 15 113 69 267 72 387 19
597 -23 89 -24 96 -10 82 5 -5 21 -54 36 -109z m-782 -337 c8 -168 20 -542 20
-603 -1 -27 -8 -64 -17 -82 -12 -22 -17 -60 -18 -120 l-2 -88 -9 105 c-13 133
-13 192 -3 588 4 177 11 322 15 322 5 0 11 -55 14 -122z m3439 -118 c24 -74
48 -151 51 -170 4 -19 18 -71 31 -115 13 -44 36 -120 50 -170 14 -49 39 -132
55 -183 30 -94 37 -155 20 -182 -7 -12 -12 -12 -28 4 -20 18 -43 103 -113 416
-11 52 -22 102 -24 110 -2 8 -13 56 -24 105 -12 50 -26 110 -31 135 -6 25 -17
73 -25 108 -31 131 -19 112 38 -58z m-3132 -15 c6 -49 13 -103 16 -120 7 -55
23 -427 29 -680 5 -200 3 -271 -10 -354 -8 -58 -20 -109 -25 -114 -11 -11 -46
6 -54 27 -3 8 -2 29 3 48 5 18 16 87 25 153 18 140 22 821 5 970 -6 50 -12
110 -15 135 -10 85 14 26 26 -65z m-1485 -321 c-38 -114 -92 -256 -140 -366
-17 -40 -58 -74 -76 -63 -24 15 -5 67 79 214 49 86 108 200 131 254 24 53 45
96 46 94 2 -2 -16 -62 -40 -133z m1828 -859 c-9 -25 -21 -45 -25 -45 -13 0
-11 14 11 65 11 26 21 56 22 68 0 12 3 7 5 -11 3 -18 -3 -53 -13 -77z m-524
49 c59 -26 88 -49 77 -60 -3 -4 -52 17 -109 46 -82 41 -95 51 -66 47 21 -3 65
-18 98 -33z m-515 -195 c22 -4 61 -8 88 -9 50 0 62 -15 24 -29 -58 -22 -217
12 -217 46 0 12 7 14 33 8 17 -4 50 -11 72 -16z m1958 -425 c133 -7 137 -7
121 -25 -10 -11 -36 -24 -58 -30 -69 -19 -286 8 -286 35 0 23 24 37 55 32 17
-4 92 -9 168 -12z"/>
<path d="M1558 5819 c4 -38 3 -41 -16 -35 -18 6 -20 3 -18 -25 3 -45 21 -47
46 -7 22 37 26 78 8 96 -20 20 -24 14 -20 -29z"/>
</g>
</svg>
